<svg width="128" height="128" viewBox="0 0 128 128" fill="none" xmlns="http://www.w3.org/2000/svg">
  <!-- Background gradient -->
  <defs>
    <linearGradient id="bg" x1="0%" y1="0%" x2="100%" y2="100%">
      <stop offset="0%" style="stop-color:#4285F4"/>
      <stop offset="100%" style="stop-color:#0066CC"/>
    </linearGradient>
    <linearGradient id="accent" x1="0%" y1="0%" x2="100%" y2="100%">
      <stop offset="0%" style="stop-color:#EA4335"/>
      <stop offset="100%" style="stop-color:#FF6B35"/>
    </linearGradient>
  </defs>
  
  <!-- Background circle -->
  <circle cx="64" cy="64" r="60" fill="url(#bg)"/>
  
  <!-- Ad frame/screen -->
  <rect x="24" y="32" width="80" height="48" rx="4" fill="white" opacity="0.95"/>
  
  <!-- AI sparkle/magic icon -->
  <g transform="translate(32, 40)">
    <!-- Main sparkle -->
    <path d="M16 8L18 12L22 10L20 6L16 8Z" fill="url(#accent)"/>
    <path d="M12 16L14 20L18 18L16 14L12 16Z" fill="url(#accent)" opacity="0.8"/>
    <path d="M6 12L8 16L12 14L10 10L6 12Z" fill="url(#accent)" opacity="0.6"/>
    
    <!-- Text lines representing ad content -->
    <rect x="24" y="8" width="32" height="2" rx="1" fill="#4285F4"/>
    <rect x="24" y="14" width="24" height="2" rx="1" fill="#4285F4" opacity="0.7"/>
    <rect x="24" y="20" width="20" height="2" rx="1" fill="#4285F4" opacity="0.5"/>
    
    <!-- CTA button -->
    <rect x="24" y="26" width="16" height="6" rx="3" fill="url(#accent)"/>
  </g>
  
  <!-- Chrome extension indicator -->
  <circle cx="96" cy="32" r="8" fill="#34A853"/>
  <path d="M92 32L95 35L100 30" stroke="white" stroke-width="2" fill="none" stroke-linecap="round" stroke-linejoin="round"/>
</svg>